<?xml version="1.0"?>
<svg xmlns:rdf="http://www.w3.org/1999/02/22-rdf-syntax-ns#" xmlns="http://www.w3.org/2000/svg" xmlns:cc="http://creativecommons.org/ns#" xmlns:dc="http://purl.org/dc/elements/1.1/" xmlns:svg="http://www.w3.org/2000/svg" id="svg10717" viewBox="0 0 79.719 73.844" version="1.1">
  <g id="layer1" transform="translate(-310.14 -495.44)">
    <g id="g6075" transform="translate(142.86 -76.078)">
      <path id="path5978" d="m168.77 591.72 30.686-17.717 30.686 17.717-30.686 17.717-30.686-17.717z" fill="#cab594"/>
      <path id="path6002" fill="#81673d" d="m184.29 600.37 15.302-8.8345 0.0411 8.8345v8.8583l-15.343 8.8583v-17.717z"/>
      <path id="path6004" d="m184.29 618.09 15.343 8.8583 15.343-8.8583-15.343-8.8583-15.343 8.8583z" fill="#cab594"/>
      <path id="path6006" fill="#9e845b" d="m214.98 600.37-15.302-8.8345-0.0412 8.8345v8.8583l15.343 8.8583v-17.717z"/>
      <path id="path5968" fill="#9e845b" d="m168.77 627.16 30.78 17.139-0.0945-23.139-15.343-8.8583-0.0396-11.739-15.303-8.8354v35.433h0.00007z"/>
      <path id="path5984" fill="#81673d" d="m230.14 627.16-30.604 17.669-0.0823-23.669 15.343-8.8583-0.17477-11.616 15.518-8.9592v35.433h-0.00003z"/>
      <path id="path5986" fill="#9e845b" d="m214.8 636.02 15.302 8.8345 0.0412-8.8345v-8.8583l-15.343-8.8583v17.717z"/>
      <path id="path5988" d="m214.8 618.3 15.343-8.8583 15.343 8.8583-15.343 8.8583-15.343-8.8583z" fill="#cab594"/>
      <path id="path5990" fill="#81673d" d="m245.49 636.02-15.302 8.8345-0.0411-8.8345v-8.8583l15.343-8.8583v17.717z"/>
      <path id="path6000" d="m216.46 623.67v13.287l11.507 6.6437v-13.287l-11.507-6.6437z" fill="#364e59"/>
      <path id="path5994" fill="#804d00" d="m187 626.68v10.63l6.1372 3.5433v-10.63l-6.1372-3.5433z"/>
      <path id="path6025" d="m172.77 598.58 3.8358 2.2146v8.8583l-3.8358-2.2146v-8.8583z" fill="#19aeff"/>
      <path id="path6027" d="m176.61 600.8 3.8357 2.2146v8.8583l-3.8357-2.2146v-8.8583z" fill="#19aeff"/>
      <path id="path6053" stroke="#fff" stroke-width=".25" fill="#fff" d="m176.61 600.8v8.8583-8.8583z"/>
      <path id="path6029" d="m172.77 616.58 3.8358 2.2146v8.8583l-3.8358-2.2146v-8.8583z" fill="#19aeff"/>
      <path id="path6031" d="m176.61 618.8 3.8357 2.2146v8.8583l-3.8357-2.2146v-8.8583z" fill="#19aeff"/>
      <path id="path6039" d="m195.95 597.23-3.8358 2.2146v14.239l3.8358-2.2146v-14.239z" fill="#0084c8"/>
      <path id="path6041" d="m191.02 600.14-3.8357 2.2146v8.8583l3.8357-2.2146v-8.8583z" fill="#0084c8"/>
      <path id="path6045" d="m226.14 598.58-3.8358 2.2146v8.8583l3.8358-2.2146v-8.8583z" fill="#0084c8"/>
      <path id="path6047" d="m222.31 600.8-3.8357 2.2146v8.8583l3.8357-2.2146v-8.8583z" fill="#0084c8"/>
      <path id="path6051" fill="#19aeff" d="m193.32 630.7v10.63l1.7428 1.0646v-10.63l-1.7428-1.0646z"/>
      <path id="path6055" stroke="#fff" stroke-width=".25" fill="#fff" d="m176.61 618.8v8.8583-8.8583z"/>
      <path id="path6073" stroke="#fff" stroke-width=".25" fill="#fff" d="m222.75 600.94v8.8583-8.8583z"/>
    </g>
    <path id="path6102" stroke="#2d2d2d" stroke-width="3" fill="none" d="m342.33 496.94-30.688 17.719v35.406l24.531 14.188 1.75 1.0625v-0.0625l4.3125 2.5h0.1562l15.281-8.8125 1.6562 0.9375 11.5 6.6562 2.125 1.25h0.0937l15.312-8.8438v-17.719l-15.344-8.8438v-17.719l-30.688-17.719h0.0001z"/>
  </g>
  <metadata>
    <rdf:RDF>
      <cc:Work>
        <dc:format>image/svg+xml</dc:format>
        <dc:type rdf:resource="http://purl.org/dc/dcmitype/StillImage"/>
        <cc:license rdf:resource="http://creativecommons.org/licenses/publicdomain/"/>
        <dc:publisher>
          <cc:Agent rdf:about="http://openclipart.org/">
            <dc:title>Openclipart</dc:title>
          </cc:Agent>
        </dc:publisher>
        <dc:title>isocity house</dc:title>
        <dc:date>2010-03-20T21:37:20</dc:date>
        <dc:description>building, clip art, clipart, house, isometric, </dc:description>
        <dc:source>http://openclipart.org/detail/32785/isocity-house-by-rg1024</dc:source>
        <dc:creator>
          <cc:Agent>
            <dc:title>rg1024</dc:title>
          </cc:Agent>
        </dc:creator>
        <dc:subject>
          <rdf:Bag>
            <rdf:li>building</rdf:li>
            <rdf:li>clip art</rdf:li>
            <rdf:li>clipart</rdf:li>
            <rdf:li>house</rdf:li>
            <rdf:li>isometric</rdf:li>
          </rdf:Bag>
        </dc:subject>
      </cc:Work>
      <cc:License rdf:about="http://creativecommons.org/licenses/publicdomain/">
        <cc:permits rdf:resource="http://creativecommons.org/ns#Reproduction"/>
        <cc:permits rdf:resource="http://creativecommons.org/ns#Distribution"/>
        <cc:permits rdf:resource="http://creativecommons.org/ns#DerivativeWorks"/>
      </cc:License>
    </rdf:RDF>
  </metadata>
</svg>
